<?xml version="1.0" standalone="no"?><!DOCTYPE svg PUBLIC "-//W3C//DTD SVG 1.1//EN" "http://www.w3.org/Graphics/SVG/1.1/DTD/svg11.dtd"><svg t="1756888782899" class="icon" viewBox="0 0 1024 1024" version="1.1" xmlns="http://www.w3.org/2000/svg" p-id="1650" xmlns:xlink="http://www.w3.org/1999/xlink" width="200" height="200"><path d="M321.952 950.976a190.048 67.872 0 1 0 380.096 0 190.048 67.872 0 1 0-380.096 0Z" fill="#C1C5C4" p-id="1651"></path><path d="M430.56 950.976a81.44 40.736 0 1 0 162.88 0 81.44 40.736 0 1 0-162.88 0Z" fill="#878E95" p-id="1652"></path><path d="M512 0C697.568 0 848 150.432 848 336c0 129.856-74.336 246.336-188.864 302.144-30.272 15.136-52.544 37.12-67.104 66.016l-4.672 10.08-75.36 238.4-72.256-228.448-0.96-1.6-1.856-3.936-1.664-4.096c-9.568-26.336-18.848-39.296-36.576-52.704l-6.4-4.64-30.368-20.544-7.36-3.744A335.936 335.936 0 0 1 176.64 356.32l-0.448-10.4L176 336C176 150.432 326.432 0 512 0z" fill="#D03A2F" p-id="1653"></path><path d="M512 32a304 304 0 0 0-143.296 572.16l8.736 4.512 35.104 23.68c26.016 18.432 40.16 36.48 52.8 71.264l1.28 3.04 1.44 2.656 1.696 3.648 42.24 133.568 45.344-143.328 1.824-4.32c17.536-39.68 46.24-69.664 85.824-89.44A304 304 0 0 0 512 32z" fill="#F54336" p-id="1654"></path><path d="M512 137.152a198.848 198.848 0 1 1 0 397.696 198.848 198.848 0 0 1 0-397.696z" fill="#D03A2F" p-id="1655"></path><path d="M512 169.152a166.848 166.848 0 1 0 0 333.696 166.848 166.848 0 0 0 0-333.696z" fill="#FFFFFF" p-id="1656"></path></svg>